Title                            : Gam yee wai
Also Known As                    : 14 Blades
Year                             : 2010
Genre                            : Action | Drama | Thriller
iMDB URL                         : http://www.imdb.com/title/tt1442571/
Awards                           : 2 nominations

Complete name                    : 14.Blades.2010.BRRIP.H264-ZEKTORM.mp4
Format                           : MPEG-4
Format profile                   : Base Media
Codec ID                         : isom
File size                        : 1.56 GiB
Duration                         : 1h 52mn
Overall bit rate                 : 1982 Kbps
Subtitles                        : English (Format: srt)

Video
ID                               : 1
Format                           : AVC
Format/Info                      : Advanced Video Codec
Format profile                   : High@L3.0
Format settings, CABAC           : Yes
Codec ID                         : avc1
Codec ID/Info                    : Advanced Video Coding
Duration                         : 1h 52mn
Bit rate mode                    : Variable
Bit rate                         : 1676 Kbps
Width                            : 1280 pixels
Height                           : 544 pixels
Display aspect ratio             : 2.35
Frame rate mode                  : Constant
Frame rate                       : 23.976 fps
Resolution                       : 24 bits
Colorimetry                      : 4:2:0
Scan type                        : Progressive
Bits/(Pixel*Frame)               : 0.100
Stream size                      : 1.32 GiB (85%)
Title                            : Video
Writing library                  : x264

Audio #1
ID                               : 2
Format                           : AAC
Format/Info                      : Advanced Audio Codec
Format version                   : Version 4
Format profile                   : LC
Format settings, SBR             : Yes
Format settings, PS              : No
Codec ID                         : 40
Duration                         : 1h 52mn
Bit rate mode                    : Variable
Bit rate                         : 220 Kbps
Maximum bit rate                 : 288 Kbps
Channel(s)                       : 6 channels
Channel positions                : Front: L C R, Rear: L R, LFE
Sampling rate                    : 48.0 KHz
Resolution                       : 16 bits
Stream size                      : 178 MiB (11%)
Title                            : Chinese
Language                         : Chinese

Audio #2
ID                               : 3
Format                           : AAC
Format/Info                      : Advanced Audio Codec
Format version                   : Version 4
Format profile                   : LC
Format settings, SBR             : Yes
Format settings, PS              : No
Codec ID                         : 40
Duration                         : 1h 52mn
Bit rate mode                    : Variable
Bit rate                         : 82.9 Kbps
Maximum bit rate                 : 117 Kbps
Channel(s)                       : 2 channels
Channel positions                : L R
Sampling rate                    : 48.0 KHz
Resolution                       : 16 bits
Stream size                      : 66.9 MiB (4%)
Title                            : Chinese
Language                         : Chinese
